<svg width="35" height="35" viewBox="0 0 35 35" fill="none" xmlns="http://www.w3.org/2000/svg">
<path d="M35 19C35 26.5425 35 30.3137 32.6569 32.6569C30.3137 35 26.5425 35 19 35H16C8.45753 35 4.68629 35 2.34315 32.6569C0 30.3137 0 26.5425 0 19V16C0 8.45753 0 4.68629 2.34315 2.34315C4.68629 0 8.45753 0 16 0H19C26.5425 0 30.3137 0 32.6569 2.34315C35 4.68629 35 8.45753 35 16V19ZM20.999 10.0791C19.9933 9.818 19.0306 10.2381 18.2139 10.8389V10.8389C18.0823 10.9356 18.0604 11.1231 18.1978 11.2115L18.7705 11.5801C19.0022 11.7291 19.07 12.0381 18.9209 12.2705C18.7815 12.4877 18.4745 12.579 18.2295 12.4209L15.0889 10.4014C14.442 10.0623 13.7331 9.88884 13.001 10.0791C11.5979 10.4438 10.4701 11.5947 10.126 13.0078C9.80941 14.3084 10.1129 15.5334 10.7979 16.459C11.5276 17.4455 11.8188 18.6046 11.9316 19.8135C12.0691 21.2872 12.2544 22.7558 12.5859 24.1982L12.8291 25.2598C12.9289 25.693 13.3138 26 13.7568 26C14.1933 26 14.5737 25.7016 14.6797 25.2764L15.7568 20.9502C15.8994 20.3779 16.4126 19.9766 17 19.9766C17.5872 19.9768 18.0996 20.3783 18.2422 20.9502L19.3193 25.2764C19.4253 25.7015 19.8058 25.9999 20.2422 26C20.6852 26 21.0701 25.693 21.1699 25.2598L21.4131 24.1982C21.7446 22.7561 21.9296 21.2872 22.0674 19.8135C22.1802 18.6041 22.4721 17.4455 23.2021 16.459C23.8881 15.5337 24.1915 14.3087 23.875 13.0078C23.5309 11.5947 22.4021 10.4435 20.999 10.0791Z" fill="url(#paint0_linear_6_10)"/>
<defs>
<linearGradient id="paint0_linear_6_10" x1="31.5" y1="2" x2="3" y2="33.5" gradientUnits="userSpaceOnUse">
<stop stop-color="#427DE7"/>
<stop offset="1" stop-color="#D95BCD"/>
</linearGradient>
</defs>
</svg>
